<?xml version="1.0" encoding="UTF-8"?><svg id="_イヤー_2" xmlns="http://www.w3.org/2000/svg" xmlns:xlink="http://www.w3.org/1999/xlink" viewBox="0 0 200 101"><defs><style>.cls-1{fill:#fff;filter:url(#outer-glow-1);}.cls-2{fill:#231815;}</style><filter id="outer-glow-1" filterUnits="userSpaceOnUse"><feOffset dx="0" dy="0"/><feGaussianBlur result="blur" stdDeviation="5"/><feFlood flood-color="#231815" flood-opacity=".3"/><feComposite in2="blur" operator="in"/><feComposite in="SourceGraphic"/></filter></defs><g id="_イヤー_7"><rect class="cls-1" x="15" y="15.26" width="170" height="70"/><g><path class="cls-2" d="M81.58,70.81c0-.56,0-1.27,.02-1.95-.27,.36-.56,.72-.86,1.08-.12,.14-.19,.21-.27,.21-.06,0-.12-.09-.17-.27-.11-.49-.3-.97-.5-1.29,1.18-1.33,2.07-2.96,2.71-4.79,.12-.36,.2-.67,.24-1.05,.51,.12,.99,.24,1.41,.42,.16,.06,.22,.1,.22,.23,0,.1-.04,.17-.15,.25-.1,.1-.17,.24-.3,.63-.27,.75-.55,1.47-.9,2.16v7.62c0,1.47,.03,2.21,.03,2.28,0,.15-.01,.17-.17,.17h-1.2c-.15,0-.17-.02-.17-.17,0-.09,.03-.81,.03-2.28v-3.25Zm12.15-5.4c0,.17-.01,.18-.15,.18-.08,0-.36-.02-1.12-.03-.42,.85-.99,1.58-1.67,2.19,.96,.51,2.08,.89,3.38,1.11-.2,.27-.36,.57-.48,.96-.1,.31-.13,.42-.27,.42-.08,0-.18-.03-.33-.08-1.37-.4-2.52-.9-3.48-1.53-.9,.55-1.92,.99-3.06,1.33-.15,.04-.24,.07-.31,.07-.15,0-.2-.1-.32-.38-.15-.34-.31-.61-.51-.82,1.16-.27,2.19-.62,3.08-1.08-.46-.44-.87-.92-1.2-1.47-.21,.25-.45,.52-.71,.79-.17,.15-.25,.24-.33,.24-.09,0-.17-.09-.31-.27-.2-.24-.39-.4-.63-.55v5.53c0,1.32,.03,1.96,.03,2.05,0,.17-.01,.18-.17,.18h-1.15c-.15,0-.17-.02-.17-.18,0-.09,.03-.73,.03-2.05v-4.81c0-.9-.03-1.35-.1-1.94,.58,.02,.97,.05,1.48,.1,.14,.02,.25,.09,.25,.18,0,.1-.07,.21-.12,.33-.04,.1-.06,.24-.08,.52,.96-.92,1.54-1.8,1.98-2.79,.11-.24,.23-.57,.29-.91,.46,.09,.84,.18,1.32,.31,.1,.03,.18,.09,.18,.18s-.06,.17-.12,.23c-.08,.08-.17,.24-.29,.5l-.19,.39h3.33c1.26,0,1.68-.03,1.77-.03,.13,0,.15,.02,.15,.15v.96Zm-1.68,6.84c.23-.21,.38-.4,.54-.66,.41,.24,.83,.52,1.14,.79,.09,.08,.14,.14,.14,.21,0,.09-.06,.15-.17,.2-.12,.06-.29,.18-.48,.34-1.77,1.54-3.48,2.62-6.66,3.29-.15,.03-.29,.04-.33,.04-.13,0-.18-.08-.29-.3-.2-.42-.39-.68-.65-.95,3.21-.49,5.1-1.51,6.75-2.97Zm-1.62-2.32c.09,.06,.12,.1,.12,.18s-.06,.14-.17,.17c-.12,.03-.27,.1-.5,.25-.82,.58-1.86,1.14-3.12,1.53-.17,.04-.27,.07-.35,.07-.13,0-.17-.07-.27-.27-.17-.28-.39-.54-.62-.75,1.44-.38,2.54-.84,3.22-1.32,.24-.17,.42-.34,.56-.52,.39,.19,.78,.44,1.11,.66Zm-.03,1.08c.21-.17,.42-.4,.55-.6,.42,.22,.76,.45,1.11,.7,.1,.08,.12,.12,.12,.2s-.04,.15-.13,.18c-.13,.04-.3,.14-.54,.33-1.21,.98-2.53,1.67-4.42,2.23-.18,.06-.29,.09-.36,.09-.12,0-.17-.09-.27-.28-.17-.33-.41-.63-.63-.84,2.22-.5,3.39-1.12,4.58-2.01Zm-2.12-5.44c.38,.56,.83,1.04,1.35,1.46,.5-.4,.92-.88,1.26-1.46h-2.61Z"/><path class="cls-2" d="M100.96,65.11c-1.39,0-1.89,.03-1.98,.03-.15,0-.17-.01-.17-.17v-1.23c0-.15,.01-.17,.17-.17,.09,0,.58,.03,1.98,.03h8.15c1.39,0,1.89-.03,1.98-.03,.15,0,.17,.02,.17,.17v1.23c0,.15-.01,.17-.17,.17-.09,0-.58-.03-1.98-.03h-2.91v3.54h2.08c1.29,0,1.74-.03,1.83-.03,.13,0,.15,.02,.15,.17v1.21c0,.15-.01,.17-.15,.17-.09,0-.54-.03-1.83-.03h-2.08v4.02h3.51c1.33,0,1.79-.03,1.88-.03,.13,0,.15,.01,.15,.17v1.24c0,.15-.01,.17-.15,.17-.09,0-.54-.03-1.88-.03h-9.38c-1.32,0-1.77,.03-1.86,.03-.13,0-.15-.01-.15-.17v-1.24c0-.15,.02-.17,.15-.17,.09,0,.54,.03,1.86,.03h.23v-4.35c0-1.04-.02-1.58-.12-2.28,.57,.01,1.2,.04,1.72,.1,.17,.01,.25,.09,.25,.18,0,.14-.04,.21-.1,.33-.08,.18-.11,.56-.11,1.63v4.38h2.33v-9.04h-3.57Z"/><path class="cls-2" d="M118.4,66.33c-1.32,0-1.79,.03-1.88,.03-.15,0-.17-.01-.17-.18v-1.14c0-.15,.02-.17,.17-.17,.09,0,.55,.03,1.88,.03h1.77c-.26-.54-.47-.93-.84-1.48-.09-.14-.06-.17,.11-.24l1.02-.39c.21-.07,.23-.07,.32,.06,.34,.47,.62,.89,.87,1.44,.06,.14,.06,.15-.17,.24l-.95,.38h3.38c.34-.5,.64-.96,.92-1.46,.13-.27,.22-.5,.29-.75,.52,.12,1.08,.25,1.5,.41,.13,.06,.21,.1,.21,.21,0,.07-.06,.13-.14,.19-.1,.07-.18,.17-.4,.52-.17,.25-.38,.56-.62,.87h1.98c1.33,0,1.8-.03,1.89-.03,.15,0,.17,.02,.17,.17v1.14c0,.17-.02,.18-.17,.18-.09,0-.56-.03-1.89-.03h-9.24Zm4.33,6.52c0,.76,.03,1.56,.03,2.01,0,.57-.04,.98-.36,1.25-.22,.19-.6,.3-1.7,.31-.48,0-.48,.01-.55-.45-.08-.38-.18-.71-.34-.96,.41,.03,.62,.04,1,.04s.5-.09,.5-.39v-1.25h-2.4v1.05c0,1.23,.03,1.83,.03,1.91,0,.15-.01,.17-.17,.17h-1.2c-.15,0-.17-.02-.17-.17,0-.09,.03-.66,.03-1.95v-4.95c0-1.29-.03-1.89-.03-2,0-.13,.02-.15,.17-.15,.11,0,.46,.03,1.58,.03h1.89c1.11,0,1.47-.03,1.56-.03,.15,0,.17,.02,.17,.15,0,.09-.03,.78-.03,2.12v3.25Zm-3.83-4.15v1.15h2.4v-1.15h-2.4Zm2.4,3.52v-1.15h-2.4v1.15h2.4Zm2.85-2.37c0-.87-.01-1.42-.1-2.13,.54,.02,.99,.06,1.5,.12,.15,.01,.21,.07,.21,.17,0,.12-.06,.24-.09,.34-.06,.21-.06,.51-.06,1.48v1.77c0,1,.03,1.48,.03,1.57,0,.15-.02,.15-.17,.15h-1.19c-.15,0-.17,0-.17-.15,0-.1,.03-.57,.03-1.57v-1.75Zm4.42,2.22c0,1.06,.03,1.86,.03,2.61s-.13,1.11-.53,1.37c-.4,.25-.81,.33-2.16,.33-.47,0-.47,.01-.57-.47-.09-.42-.21-.75-.41-1.05,.53,.06,.95,.08,1.51,.08,.47,0,.65-.1,.65-.58v-5.17c0-.85-.03-1.5-.12-2.02,.55,.01,1.04,.04,1.54,.1,.15,.01,.24,.09,.24,.16,0,.12-.06,.21-.11,.32-.08,.18-.09,.49-.09,1.44v2.89Z"/></g><g><path class="cls-2" d="M49.74,51.13l9.93-21.14h.72l9.84,21.14h-4.44l-1.55-3.4h-8.47l-1.55,3.4h-4.47Zm7.42-6.71h5.63l-2.8-6.53-2.83,6.53Z"/><path class="cls-2" d="M78.39,51.13V30.2h11.87v3.4h-7.84v4.2h6.26v3.4h-6.26v9.93h-4.03Z"/><path class="cls-2" d="M113.39,33.6h-5.22v17.53h-4.02v-17.53h-5.22v-3.4h14.46v3.4Z"/><path class="cls-2" d="M134.73,47.73v3.4h-12.4V30.2h12.08v3.4h-8.05v4.2h6.5v3.4h-6.5v6.53h8.38Z"/><path class="cls-2" d="M154.95,43.26l5.63,7.87h-4.92l-4.41-6.47c-.92,.15-1.7,.18-2.74,.09v6.38h-4.03V30.38c8.92-1.73,13.71,1.49,13.71,6.83,0,2.33-1.28,4.8-3.25,6.05Zm-6.44-2.12c3.58,.51,5.55-1.46,5.55-3.88,0-2.27-1.82-4.14-5.55-3.52v7.39Z"/></g></g></svg>